# Blender v2.81 (sub 16) OBJ File: '100billy4upload2sketchfab.blend'
# www.blender.org
mtllib 100billy10.mtl
o Cube
v 0.080000 0.000150 -0.035000
v 0.080000 -0.000150 -0.035000
v 0.080000 0.000150 0.035000
v 0.080000 -0.000150 0.035000
v -0.080000 0.000150 -0.035000
v -0.080000 -0.000150 -0.035000
v -0.080000 0.000150 0.035000
v -0.080000 -0.000150 0.035000
vt 0.001198 0.001357
vt 0.501974 0.001357
vt 0.501974 0.502132
vt 0.001198 0.502132
vt -0.000406 0.998815
vt 0.502567 0.998815
vt 0.502567 1.501788
vt -0.000406 1.501788
vt -0.000406 -0.510104
vt 0.502567 -0.510104
vt 0.502567 -0.007131
vt -0.000406 -0.007131
vt 0.005468 0.502861
vt 0.494737 0.502861
vt 0.494737 0.992129
vt 0.005468 0.992129
vt -0.000406 0.495842
vt 0.502567 0.495842
vn 0.0000 1.0000 0.0000
vn 0.0000 0.0000 1.0000
vn -1.0000 0.0000 0.0000
vn 0.0000 -1.0000 0.0000
vn 1.0000 0.0000 0.0000
vn 0.0000 0.0000 -1.0000
g Cube_Cube_Material
usemtl Material
s off
f 1/1/1 5/2/1 7/3/1 3/4/1
f 4/5/2 3/6/2 7/7/2 8/8/2
f 8/9/3 7/10/3 5/11/3 6/12/3
f 6/13/4 2/14/4 4/15/4 8/16/4
f 2/17/5 1/18/5 3/6/5 4/5/5
f 6/12/6 5/11/6 1/18/6 2/17/6
